<svg width="520" height="374" viewBox="0 0 520 374" fill="none" xmlns="http://www.w3.org/2000/svg">
<path d="M392.486 122.264C400.587 127.507 403.765 135.527 405.767 144.556C407.034 150.829 407.665 157.184 408.276 163.548C408.456 165.346 408.666 167.135 408.894 168.927C409.928 177.586 409.927 186.246 409.93 194.955C409.93 195.586 409.931 196.218 409.932 196.869C409.932 198.7 409.925 200.53 409.917 202.36C409.916 202.907 409.915 203.453 409.914 204.016C409.881 208.201 409.47 212.284 408.892 216.426C408.593 220.044 409.33 221.916 411.586 224.774C413.143 226.535 414.756 228.221 416.432 229.868C417.757 231.194 417.757 231.194 417.757 232.519C418.109 232.684 418.461 232.849 418.824 233.019C420.809 234.053 422.661 235.252 424.55 236.453C433.085 241.782 443.031 243.433 452.988 241.52C458.394 240.05 462.043 237.342 465.018 232.643C470.609 222.034 471.671 212.043 471.598 200.214C471.596 199.359 471.596 199.359 471.593 198.487C471.559 188.266 471.099 178.148 469.724 168.011C468.959 162.347 468.626 156.773 468.575 151.054C468.557 150.017 468.557 150.017 468.54 148.96C468.547 140.066 471.711 132.18 478.059 125.831C482.909 122.517 486.531 121.057 492.43 120.986C492.946 120.966 493.461 120.947 493.993 120.927C500.41 120.858 504.462 123.912 508.989 128.231C519.164 138.645 518.541 155.235 519.144 168.904C519.181 169.659 519.219 170.413 519.257 171.191C519.533 176.833 519.695 182.474 519.806 188.121C519.818 188.637 519.829 189.153 519.84 189.684C520.111 202.511 520.216 215.252 518.647 228.005C518.543 228.856 518.439 229.708 518.332 230.586C517.166 239.082 515.19 247.141 511.358 254.842C511.068 255.435 510.779 256.028 510.48 256.639C508.19 261.243 505.674 265.511 502.577 269.628C502.134 270.217 501.691 270.806 501.234 271.414C493.681 281.127 484.513 287.122 473.421 292.158C472.81 292.438 472.199 292.718 471.57 293.007C459.462 297.963 444.989 297.869 432.336 295.471C431.653 295.342 430.971 295.213 430.268 295.08C415.932 292.056 401.903 286.211 390.384 277.049C389.195 276.125 389.195 276.125 387.275 275.592C387.121 275.959 386.966 276.326 386.807 276.705C381.395 286.417 368.885 292.882 358.773 296.108C343.825 300.039 328.682 297.612 315.413 290.059C306.586 284.747 299.907 277.185 293.841 268.965C291.291 269.815 290.454 271.343 288.954 273.438C283.087 281.301 276.342 287.65 267.997 292.821C267.266 293.275 266.535 293.73 265.781 294.198C263.189 295.66 260.501 296.467 257.643 297.252C257.154 297.393 256.666 297.533 256.162 297.678C243.399 301.304 228.804 300.447 216.973 294.146C216.11 293.718 216.11 293.718 215.23 293.281C199.683 285.281 187.175 269.759 181.637 253.213C178.705 243.55 177.069 233.914 177.172 223.822C177.175 223.251 177.178 222.68 177.181 222.092C177.188 220.708 177.2 219.324 177.213 217.94C176.616 218.017 176.019 218.094 175.403 218.173C173.145 218.463 170.886 218.75 168.627 219.037C167.657 219.16 166.687 219.284 165.718 219.409C160.922 220.026 156.148 220.609 151.32 220.928C148.155 221.151 145.375 221.614 142.341 222.538C141.581 222.762 140.82 222.987 140.037 223.218C138.024 223.85 138.024 223.85 136.128 225.23C135.83 226.974 135.83 226.974 135.884 229.048C135.877 230.256 135.877 230.256 135.87 231.489C135.872 231.923 135.874 232.357 135.876 232.804C135.883 234.175 135.877 235.545 135.869 236.916C135.858 238.868 135.851 240.821 135.848 242.773C135.788 268.862 134.392 294.473 125.526 319.327C125.3 319.982 125.073 320.637 124.84 321.312C120.955 331.574 114.427 340.541 106.972 348.484C106.657 348.823 106.342 349.162 106.018 349.511C102.047 353.76 97.9469 357.28 93.0558 360.412C92.4843 360.799 91.9128 361.186 91.3241 361.584C84.8055 365.914 78.0279 368.85 70.6083 371.221C70.0804 371.39 69.5525 371.559 69.0086 371.733C63.0101 373.579 57.3061 373.786 51.0599 373.789C50.2775 373.797 49.495 373.805 48.6889 373.814C42.1758 373.824 36.8919 372.867 30.9317 370.31C27.2937 368.765 24.2838 367.629 20.2878 367.825C16.3073 367.87 13.3963 366.094 10.4722 363.518C9.95288 362.93 9.43352 362.342 8.89843 361.737C8.58664 361.411 8.27486 361.086 7.95362 360.751C1.20809 353.447 -0.147571 346.33 0.0121027 336.758C0.233079 332.264 1.65239 328.935 4.25983 325.291C4.56991 324.84 4.87999 324.389 5.19946 323.924C7.62799 320.768 10.7928 318.677 14.1997 316.676C14.8109 316.303 14.8109 316.303 15.4344 315.923C19.3734 314.332 24.3665 314.674 28.263 316.172C31.0388 317.677 33.5642 319.394 36.0673 321.315C36.286 321.096 36.5047 320.878 36.73 320.652C37.6669 320.586 38.6071 320.566 39.5463 320.569C40.0554 320.568 40.5645 320.566 41.089 320.564C42.6939 320.652 42.6939 320.652 44.2082 320.976C51.6459 322.378 58.7782 321.768 65.2656 317.836C73.9353 311.876 78.9414 303.112 82.2876 293.4C82.4744 292.868 82.6611 292.336 82.8535 291.787C86.023 282.058 86.7211 272.149 86.7217 261.999C86.7296 260.867 86.7384 259.734 86.7482 258.601C86.7719 255.654 86.7855 252.707 86.7957 249.759C86.8123 245.038 86.8389 240.318 86.8764 235.597C86.887 233.971 86.8897 232.344 86.8917 230.718C86.9816 211.648 91.4519 193.41 104.901 179.258C114.95 169.675 126.255 167.789 139.474 166.327C148.6 165.317 157.714 164.235 166.818 163.041C167.614 162.937 168.41 162.832 169.231 162.725C173.142 162.211 177.053 161.691 180.963 161.166C211.498 157.105 211.498 157.105 218.331 161.907C224.912 167.249 228.7 174.892 230.019 183.195C230.817 191.972 230.34 200.647 228.9 209.326C227.125 220.093 227.499 230.477 233.539 239.808C236.491 243.558 240.163 245.375 244.838 246.075C250.44 246.363 254.828 245.1 259.383 241.796C261.156 239.985 262.251 238.103 263.358 235.832C263.704 235.133 264.05 234.433 264.407 233.712C269.296 223.089 270.058 212.313 270.101 200.781C270.117 199.161 270.133 197.541 270.149 195.921C270.173 193.409 270.192 190.897 270.201 188.385C270.303 164.149 270.303 164.149 277.274 155.651C283.285 149.87 289.416 148.129 297.63 148.222C303.759 148.616 309.146 151.535 313.306 156.024C318.194 163.355 318.645 170.59 318.611 179.156C318.605 180.846 318.612 182.536 318.622 184.226C318.648 189.026 318.649 193.825 318.648 198.624C318.648 201.577 318.661 204.529 318.68 207.482C318.687 209.13 318.68 210.777 318.671 212.425C318.691 221.252 319.895 230.048 325.648 237.158C330.804 242.049 334.894 243.41 341.963 243.285C344.863 243.073 346.363 242.65 348.841 241.133C349.218 240.905 349.595 240.677 349.983 240.442C357.003 235.428 359.258 225.297 360.769 217.278C361.201 214.616 361.357 212.021 361.432 209.326C361.452 208.846 361.473 208.367 361.494 207.873C362.075 193.264 360.585 178.312 358.424 163.864C356.832 152.136 356.291 138.628 363.538 128.742C365.259 126.551 366.971 125.05 369.383 123.678C369.93 123.36 370.477 123.042 371.04 122.715C377.325 119.454 385.997 119.113 392.486 122.264Z" fill="#176E70"/>
<path d="M492.431 120.985C492.946 120.966 493.462 120.947 493.993 120.927C500.41 120.858 504.463 123.912 508.989 128.231C519.164 138.644 518.541 155.235 519.144 168.904C519.181 169.658 519.219 170.413 519.257 171.19C519.533 176.832 519.695 182.473 519.807 188.121C519.823 188.895 519.823 188.895 519.84 189.684C520.111 202.511 520.216 215.252 518.647 228.004C518.491 229.282 518.491 229.282 518.332 230.586C517.166 239.082 515.19 247.141 511.358 254.842C510.924 255.732 510.924 255.732 510.481 256.639C508.19 261.243 505.674 265.511 502.578 269.628C502.134 270.217 501.691 270.806 501.234 271.414C493.681 281.127 484.513 287.122 473.421 292.158C472.81 292.438 472.199 292.718 471.57 293.007C459.462 297.963 444.989 297.869 432.336 295.471C431.654 295.342 430.971 295.213 430.268 295.08C414.588 291.772 400.889 284.905 387.938 275.591C389.595 272.622 391.349 269.734 393.156 266.853C396.632 261.222 399.825 255.406 401.854 249.085C402.158 248.158 402.158 248.158 402.467 247.211C403.967 242.324 405.031 237.419 405.954 232.395C406.065 231.797 406.175 231.199 406.289 230.584C407.032 226.383 407.492 222.193 407.818 217.94C408.036 217.94 408.255 217.94 408.48 217.94C408.603 218.473 408.726 219.006 408.853 219.556C410.471 223.566 413.294 226.836 416.391 229.827C416.842 230.278 417.293 230.729 417.758 231.193C417.758 231.631 417.758 232.068 417.758 232.519C418.11 232.684 418.461 232.849 418.824 233.018C420.809 234.053 422.662 235.252 424.55 236.453C433.086 241.781 443.031 243.433 452.988 241.52C458.394 240.05 462.044 237.341 465.018 232.643C470.609 222.033 471.671 212.042 471.598 200.214C471.597 199.644 471.595 199.074 471.594 198.487C471.56 188.266 471.099 178.148 469.724 168.011C468.96 162.347 468.626 156.773 468.575 151.053C468.563 150.362 468.552 149.671 468.54 148.96C468.547 140.066 471.711 132.18 478.059 125.831C482.909 122.517 486.531 121.057 492.431 120.985Z" fill="#5FB385"/>
<path d="M495.791 145.577C498.172 147.535 499.429 148.847 499.853 151.968C500.032 155.839 499.594 158.118 496.992 161.025C496.555 161.025 496.118 161.025 495.667 161.025C495.755 161.549 495.843 162.073 495.934 162.612C496.766 167.929 497.217 173.161 497.428 178.536C497.545 181.373 497.823 184.068 498.318 186.869C500.628 211.06 498.758 238.221 482.745 257.812C474.668 267.171 463.456 274.632 450.897 275.826C437.478 276.669 424.02 273.996 412.693 266.46C411.383 265.6 411.383 265.6 409.273 264.814C406.462 263.554 404.146 261.912 401.66 260.108C400.303 259.085 400.303 259.085 398.919 258.436C399.255 255.971 399.659 253.973 400.907 251.809C403.482 252.714 405.35 253.898 407.492 255.578C420.816 265.389 437.658 269.632 454.06 267.525C464.002 265.636 473.421 260.242 479.473 252.141C484.268 244.87 487.829 237.136 489.703 228.616C489.9 227.778 490.098 226.94 490.301 226.077C493.446 211.063 492.097 194.712 490.78 179.538C490.738 179.056 490.696 178.573 490.653 178.076C490.418 168.517 490.417 168.517 487.052 160.073C486.396 159.56 486.396 159.56 485.727 159.037C484.034 156.227 483.96 153.624 484.402 150.423C485.237 148.142 486.336 146.333 488.295 144.832C491.254 144.048 493.056 144.129 495.791 145.577Z" fill="#F0F7F2"/>
<path d="M499.264 2.57708C507.983 7.87898 512.861 16.709 515.944 26.1635C518.372 36.1498 515.146 48.7888 510.056 57.5439C499.728 73.8432 479.57 84.8332 461.079 89.126C456.688 90.0081 452.423 90.2808 447.95 90.2548C447.285 90.2515 446.62 90.2483 445.935 90.2449C434.152 90.0586 434.152 90.0586 430.265 86.4031C427.023 82.0798 427.045 78.0433 427.697 72.8186C428.952 70.3471 430.526 68.7535 432.998 67.5174C434.372 67.3924 435.749 67.3038 437.127 67.2327C437.97 67.1854 438.812 67.1381 439.68 67.0893C440.125 67.0648 440.569 67.0403 441.028 67.0151C451.186 66.4412 460.595 65.4495 470.107 61.5535C469.614 59.4744 469.614 59.4744 467.917 58.3463C462.895 54.3209 459.599 48.0185 458.842 41.6738C457.874 28.5665 460.389 17.6342 468.787 7.22085C471.095 4.89447 473.807 3.34941 476.734 1.91442C477.465 1.54028 477.465 1.54028 478.212 1.15858C484.305 -0.731985 493.591 -0.342863 499.264 2.57708Z" fill="#5FB385"/>
<path d="M452.405 320.07C459.886 325.248 462.641 330.062 465.469 338.544C466.134 347.853 464.883 356.877 458.842 364.387C453.813 369.34 449 372.539 441.847 372.65C441.346 372.643 440.845 372.636 440.329 372.629C439.542 372.621 439.542 372.621 438.739 372.613C431.858 372.413 427.928 369.753 423.059 365.05C422.567 364.613 422.075 364.175 421.568 363.725C415.64 356.95 415.135 348.555 415.629 339.957C415.929 336.931 416.925 334.531 418.42 331.917C418.701 331.363 418.982 330.809 419.272 330.237C422.343 324.565 426.802 319.903 433.004 317.758C439.775 316.326 446.341 316.485 452.405 320.07Z" fill="#F47E53"/>
<path d="M508.282 321.001C514.02 324.536 517.321 330.177 519.144 336.556C520.635 347.073 518.685 355.384 512.98 364.429C509.916 368.479 504.831 371.692 499.896 372.787C493.211 373.521 487.8 373.199 482.276 369.034C476.271 363.837 472.43 359.177 471.432 351.134C471.257 348.676 471.18 346.226 471.143 343.762C471.128 343.154 471.113 342.546 471.098 341.919C471.122 334.75 473.857 329.148 478.722 323.965C487.464 315.804 498.058 315.623 508.282 321.001Z" fill="#5FB385"/>
<path d="M156.394 363.003C154.543 362.983 153.191 362.535 152.338 361.661C151.484 360.767 151.057 359.547 151.057 358.002V357.849H150.874C150.711 358.561 150.518 359.161 150.294 359.648C150.091 360.136 149.827 360.533 149.502 360.838C149.176 361.122 148.79 361.336 148.343 361.478C147.895 361.6 147.367 361.661 146.757 361.661C145.293 361.661 144.195 361.275 143.463 360.502C142.732 359.709 142.366 358.601 142.366 357.178C142.366 355.511 142.823 354.159 143.738 353.122C144.673 352.065 145.923 351.15 147.489 350.378L150.904 348.67V346.993H154.564V356.782C154.564 357.392 154.696 357.819 154.96 358.063C155.245 358.307 155.723 358.429 156.394 358.429H157.308V362.088L156.394 363.003ZM147.763 357.087C148.942 357.087 149.756 356.975 150.203 356.751C150.671 356.528 150.904 356.121 150.904 355.532V351.872L148.648 352.939C148.099 353.204 147.621 353.438 147.214 353.641C146.828 353.844 146.493 354.058 146.208 354.281C145.944 354.485 145.74 354.698 145.598 354.922C145.476 355.145 145.415 355.399 145.415 355.684C145.415 356.192 145.578 356.558 145.903 356.782C146.249 356.985 146.869 357.087 147.763 357.087ZM152.46 344.553C151.931 344.553 151.494 344.391 151.148 344.065C150.823 343.74 150.66 343.222 150.66 342.51C150.66 341.798 150.823 341.28 151.148 340.955C151.494 340.629 151.931 340.467 152.46 340.467H153.07C153.598 340.467 154.025 340.629 154.35 340.955C154.696 341.28 154.869 341.798 154.869 342.51C154.869 343.222 154.696 343.74 154.35 344.065C154.025 344.391 153.598 344.553 153.07 344.553H152.46ZM147.641 344.553C147.113 344.553 146.676 344.391 146.33 344.065C146.005 343.74 145.842 343.222 145.842 342.51C145.842 341.798 146.005 341.28 146.33 340.955C146.676 340.629 147.113 340.467 147.641 340.467H148.251C148.78 340.467 149.207 340.629 149.532 340.955C149.878 341.28 150.05 341.798 150.05 342.51C150.05 343.222 149.878 343.74 149.532 344.065C149.207 344.391 148.78 344.553 148.251 344.553H147.641ZM156.402 359.343L157.317 358.429H158.201C158.933 358.429 159.533 358.398 160 358.337C160.488 358.276 160.875 358.174 161.159 358.032C161.464 357.87 161.667 357.676 161.769 357.453C161.891 357.209 161.952 356.914 161.952 356.568C161.952 356.263 161.922 355.877 161.861 355.41C161.82 354.922 161.728 354.291 161.586 353.519L161.068 350.683L164.392 350.134L164.849 352.97C164.951 353.519 165.032 354.129 165.093 354.8C165.154 355.471 165.185 356.06 165.185 356.568C165.185 358.784 164.636 360.411 163.538 361.448C162.46 362.485 160.681 363.003 158.201 363.003H156.402V359.343ZM161.739 369.559C161.21 369.559 160.773 369.397 160.427 369.072C160.102 368.746 159.939 368.228 159.939 367.516C159.939 366.805 160.102 366.286 160.427 365.961C160.773 365.636 161.21 365.473 161.739 365.473H162.348C162.877 365.473 163.304 365.636 163.629 365.961C163.975 366.286 164.148 366.805 164.148 367.516C164.148 368.228 163.975 368.746 163.629 369.072C163.304 369.397 162.877 369.559 162.348 369.559H161.739ZM165.493 365.748H166.713C168.563 365.748 169.915 365.371 170.769 364.619C171.643 363.867 172.07 362.617 172.05 360.868C172.05 360.401 172.019 359.913 171.958 359.404C171.897 358.876 171.816 358.317 171.714 357.727L171.074 353.671L174.398 353.153L174.855 355.989C174.937 356.436 174.998 356.863 175.038 357.27C175.099 357.676 175.15 358.063 175.191 358.429H177.996V362.088L177.082 363.003H175.191C174.845 365.26 173.951 367.038 172.507 368.34C171.084 369.661 169.163 370.322 166.744 370.322H165.493V365.748ZM177.07 359.343L177.985 358.429H180.089C181.227 358.429 182.244 358.418 183.138 358.398C184.053 358.357 184.917 358.276 185.73 358.154C186.544 358.032 187.336 357.849 188.109 357.605C188.882 357.361 189.705 357.026 190.579 356.599L191.707 356.05V355.897L186.828 354.861L182.223 353.732V356.019H178.716V353.671C178.716 352.228 179.021 351.171 179.631 350.5C180.262 349.829 181.217 349.493 182.498 349.493C182.661 349.493 182.823 349.504 182.986 349.524C183.169 349.544 183.372 349.575 183.596 349.615C183.84 349.656 184.124 349.717 184.45 349.798C184.775 349.88 185.181 349.981 185.669 350.103L191.555 351.628C192.368 351.852 193.242 352.025 194.178 352.147C195.113 352.269 196.038 352.33 196.953 352.33H197.563V356.904H195.428C195.448 357.473 195.611 357.87 195.916 358.093C196.241 358.317 196.79 358.429 197.563 358.429H198.477V362.088L197.563 363.003C196.038 362.983 194.849 362.637 193.995 361.966C193.161 361.275 192.643 360.208 192.439 358.764L192.317 358.856C190.976 359.77 189.766 360.502 188.688 361.051C187.631 361.58 186.625 361.997 185.669 362.302C184.714 362.586 183.789 362.779 182.894 362.881C182 362.962 181.065 363.003 180.089 363.003H177.07V359.343ZM187.591 369.559C187.062 369.559 186.625 369.397 186.279 369.072C185.954 368.746 185.791 368.228 185.791 367.516C185.791 366.805 185.954 366.286 186.279 365.961C186.625 365.636 187.062 365.473 187.591 365.473H188.201C188.729 365.473 189.156 365.636 189.481 365.961C189.827 366.286 190 366.805 190 367.516C190 368.228 189.827 368.746 189.481 369.072C189.156 369.397 188.729 369.559 188.201 369.559H187.591ZM197.559 359.343L198.474 358.429H199.389C201.015 358.429 201.828 357.717 201.828 356.294V351.933H205.183V356.294C205.183 357.717 205.894 358.429 207.317 358.429H208.537V362.088L207.622 363.003C205.996 363.003 204.756 362.678 203.902 362.027C203.068 361.356 202.509 360.309 202.225 358.886H202.042C201.757 360.309 201.269 361.356 200.578 362.027C199.887 362.678 198.88 363.003 197.559 363.003V359.343ZM205.61 349.493C205.081 349.493 204.644 349.331 204.298 349.006C203.973 348.68 203.81 348.162 203.81 347.45C203.81 346.739 203.973 346.22 204.298 345.895C204.644 345.57 205.081 345.407 205.61 345.407H206.22C206.748 345.407 207.175 345.57 207.5 345.895C207.846 346.22 208.019 346.739 208.019 347.45C208.019 348.162 207.846 348.68 207.5 349.006C207.175 349.331 206.748 349.493 206.22 349.493H205.61ZM200.791 349.493C200.263 349.493 199.826 349.331 199.48 349.006C199.155 348.68 198.992 348.162 198.992 347.45C198.992 346.739 199.155 346.22 199.48 345.895C199.826 345.57 200.263 345.407 200.791 345.407H201.401C201.93 345.407 202.357 345.57 202.682 345.895C203.028 346.22 203.2 346.739 203.2 347.45C203.2 348.162 203.028 348.68 202.682 349.006C202.357 349.331 201.93 349.493 201.401 349.493H200.791ZM207.625 359.343L208.54 358.429H209.881C210.654 358.429 211.162 358.286 211.406 358.002C211.67 357.697 211.803 357.229 211.803 356.599V340.436H215.462V356.599C215.462 358.774 215.035 360.38 214.181 361.417C213.348 362.454 211.914 362.983 209.881 363.003H207.625V359.343ZM219.125 340.436H222.784V363.003H219.125V340.436ZM282.591 365.748H284.116C285.803 365.748 287.064 365.371 287.897 364.619C288.751 363.867 289.178 362.617 289.178 360.868C289.178 360.401 289.148 359.913 289.087 359.404C289.026 358.876 288.944 358.317 288.843 357.727L288.324 354.373L299.608 353.153V356.294C299.608 357.188 299.811 357.839 300.217 358.246C300.624 358.652 301.254 358.856 302.108 358.856C302.982 358.856 303.613 358.673 303.999 358.307C304.385 357.92 304.578 357.249 304.578 356.294V354.373H307.933V356.294C307.933 357.148 308.055 357.768 308.299 358.154C308.543 358.54 308.99 358.734 309.641 358.734H309.945C310.474 358.734 310.891 358.54 311.196 358.154C311.521 357.768 311.684 357.148 311.684 356.294V353.153H315.038V356.294C315.038 357.717 315.75 358.429 317.173 358.429H318.393V362.088L317.478 363.003C315.933 363.003 314.754 362.698 313.94 362.088C313.148 361.458 312.639 360.472 312.416 359.13H312.233C312.111 360.594 311.745 361.671 311.135 362.363C310.525 363.033 309.712 363.369 308.695 363.369C307.618 363.369 306.784 363.033 306.195 362.363C305.605 361.671 305.198 360.594 304.975 359.13H304.792C304.629 360.594 304.233 361.671 303.602 362.363C302.972 363.033 302.067 363.369 300.888 363.369C299.445 363.349 298.327 362.911 297.534 362.058C296.761 361.183 296.334 359.831 296.253 358.002L292.319 358.398C292.36 358.866 292.39 359.293 292.411 359.679C292.451 360.065 292.472 360.411 292.472 360.716C292.472 362.18 292.289 363.501 291.923 364.68C291.557 365.859 291.018 366.866 290.306 367.699C289.595 368.553 288.721 369.204 287.684 369.651C286.667 370.098 285.488 370.322 284.146 370.322H282.591V365.748ZM319.086 348.225L322.684 346.579V346.426C322.277 346.162 321.962 345.826 321.739 345.42C321.515 345.013 321.403 344.566 321.403 344.078C321.403 343.204 321.688 342.472 322.257 341.882C322.847 341.272 323.589 340.967 324.483 340.967C325.357 340.967 326.079 341.252 326.648 341.821C327.238 342.391 327.533 343.112 327.533 343.986C327.533 345.816 326.476 347.209 324.361 348.164L319.97 350.177L319.086 348.225ZM323.355 343.986C323.355 344.434 323.69 344.82 324.361 345.145L324.91 345.42C325.134 345.257 325.296 345.094 325.398 344.932C325.5 344.749 325.551 344.515 325.551 344.23C325.551 343.905 325.439 343.641 325.215 343.438C325.012 343.214 324.737 343.102 324.392 343.102C324.107 343.102 323.863 343.183 323.66 343.346C323.457 343.509 323.355 343.722 323.355 343.986ZM317.486 359.343L318.401 358.429H319.315C320.942 358.429 321.755 357.717 321.755 356.294V351.933H325.11V356.294C325.11 357.717 325.821 358.429 327.244 358.429H328.464V362.088L327.549 363.003C325.923 363.003 324.683 362.678 323.829 362.027C322.995 361.356 322.436 360.309 322.152 358.886H321.969C321.684 360.309 321.196 361.356 320.505 362.027C319.814 362.678 318.807 363.003 317.486 363.003V359.343ZM325.537 369.559C325.008 369.559 324.571 369.397 324.225 369.072C323.9 368.746 323.737 368.228 323.737 367.516C323.737 366.805 323.9 366.286 324.225 365.961C324.571 365.636 325.008 365.473 325.537 365.473H326.146C326.675 365.473 327.102 365.636 327.427 365.961C327.773 366.286 327.946 366.805 327.946 367.516C327.946 368.228 327.773 368.746 327.427 369.072C327.102 369.397 326.675 369.559 326.146 369.559H325.537ZM320.718 369.559C320.19 369.559 319.753 369.397 319.407 369.072C319.082 368.746 318.919 368.228 318.919 367.516C318.919 366.805 319.082 366.286 319.407 365.961C319.753 365.636 320.19 365.473 320.718 365.473H321.328C321.857 365.473 322.284 365.636 322.609 365.961C322.955 366.286 323.127 366.805 323.127 367.516C323.127 368.228 322.955 368.746 322.609 369.072C322.284 369.397 321.857 369.559 321.328 369.559H320.718ZM327.552 359.343L328.466 358.429H329.808C330.581 358.429 331.089 358.286 331.333 358.002C331.597 357.697 331.729 357.229 331.729 356.599V340.436H335.389V356.599C335.389 358.774 334.962 360.38 334.108 361.417C333.275 362.454 331.841 362.983 329.808 363.003H327.552V359.343ZM339.052 340.436H342.711V363.003H339.052V340.436Z" fill="#F47E53"/>
<path d="M233.963 344.157H237.622V363.003H233.963V344.157ZM232.164 339.247H233.444L233.475 339.094C233.068 338.647 232.865 338.108 232.865 337.478C232.865 336.624 233.17 335.923 233.78 335.374C234.41 334.805 235.213 334.52 236.189 334.52C236.778 334.52 237.348 334.642 237.897 334.886C238.446 335.13 238.923 335.466 239.33 335.892L237.866 337.936C237.378 337.448 236.819 337.204 236.189 337.204C235.843 337.204 235.559 337.285 235.335 337.448C235.132 337.61 235.03 337.804 235.03 338.027C235.03 338.698 235.731 339.034 237.134 339.034H239.391V341.717H232.164V339.247ZM245.056 363.003C243.633 363.003 242.545 362.647 241.793 361.936C241.041 361.224 240.665 360.086 240.665 358.52V356.477H244.172V358.429H248.349C249.02 358.429 249.508 358.327 249.813 358.124C250.139 357.92 250.301 357.585 250.301 357.117C250.301 356.894 250.25 356.629 250.149 356.324C250.067 356.019 249.976 355.715 249.874 355.41L247.191 347.694L251.094 346.322L254.174 355.135C254.398 355.806 254.621 356.355 254.845 356.782C255.069 357.209 255.302 357.544 255.546 357.788C255.811 358.032 256.085 358.205 256.37 358.307C256.675 358.388 257.03 358.429 257.437 358.429H258.352V362.088L257.437 363.003C256.583 363.003 255.841 362.942 255.211 362.82C254.581 362.698 254.011 362.474 253.503 362.149C253.015 361.824 252.568 361.397 252.161 360.868C251.775 360.34 251.399 359.659 251.033 358.825L250.911 358.886C250.789 359.618 250.616 360.248 250.393 360.777C250.189 361.305 249.925 361.732 249.6 362.058C249.274 362.383 248.878 362.627 248.41 362.789C247.943 362.932 247.384 363.003 246.733 363.003H245.056ZM257.448 359.343L258.363 358.429H259.278C260.904 358.429 261.717 357.717 261.717 356.294V351.933H265.072V356.294C265.072 357.717 265.783 358.429 267.206 358.429H268.426V362.088L267.511 363.003C265.885 363.003 264.645 362.678 263.791 362.027C262.957 361.356 262.398 360.309 262.114 358.886H261.931C261.646 360.309 261.158 361.356 260.467 362.027C259.776 362.678 258.769 363.003 257.448 363.003V359.343ZM263.089 369.559C262.561 369.559 262.124 369.397 261.778 369.072C261.453 368.746 261.29 368.228 261.29 367.516C261.29 366.805 261.453 366.286 261.778 365.961C262.124 365.636 262.561 365.473 263.089 365.473H263.699C264.228 365.473 264.655 365.636 264.98 365.961C265.326 366.286 265.499 366.805 265.499 367.516C265.499 368.228 265.326 368.746 264.98 369.072C264.655 369.397 264.228 369.559 263.699 369.559H263.089ZM267.514 359.343L268.429 358.429H269.313C270.045 358.429 270.645 358.398 271.112 358.337C271.6 358.276 271.986 358.174 272.271 358.032C272.576 357.87 272.779 357.676 272.881 357.453C273.003 357.209 273.064 356.914 273.064 356.568C273.064 356.263 273.033 355.877 272.972 355.41C272.932 354.922 272.84 354.291 272.698 353.519L272.179 350.683L275.503 350.134L275.961 352.97C276.063 353.519 276.144 354.129 276.205 354.8C276.266 355.471 276.296 356.06 276.296 356.568C276.296 358.784 275.747 360.411 274.65 361.448C273.572 362.485 271.793 363.003 269.313 363.003H267.514V359.343ZM275.473 347.694C274.944 347.694 274.507 347.532 274.162 347.206C273.836 346.881 273.674 346.363 273.674 345.651C273.674 344.939 273.836 344.421 274.162 344.096C274.507 343.77 274.944 343.608 275.473 343.608H276.083C276.611 343.608 277.038 343.77 277.364 344.096C277.709 344.421 277.882 344.939 277.882 345.651C277.882 346.363 277.709 346.881 277.364 347.206C277.038 347.532 276.611 347.694 276.083 347.694H275.473ZM270.655 347.694C270.126 347.694 269.689 347.532 269.343 347.206C269.018 346.881 268.855 346.363 268.855 345.651C268.855 344.939 269.018 344.421 269.343 344.096C269.689 343.77 270.126 343.608 270.655 343.608H271.265C271.793 343.608 272.22 343.77 272.545 344.096C272.891 344.421 273.064 344.939 273.064 345.651C273.064 346.363 272.891 346.881 272.545 347.206C272.22 347.532 271.793 347.694 271.265 347.694H270.655ZM362.306 370.322C359.176 370.322 356.807 369.59 355.201 368.126C353.615 366.683 352.822 364.629 352.822 361.966C352.822 361.051 352.944 360.025 353.188 358.886C353.453 357.727 353.808 356.609 354.256 355.532L357.183 356.385C356.777 357.26 356.451 358.144 356.207 359.039C355.984 359.933 355.872 360.706 355.872 361.356C355.872 362.637 356.329 363.623 357.244 364.314C358.159 365.026 359.44 365.382 361.087 365.382H363.526C365.254 365.382 366.525 364.985 367.338 364.192C368.151 363.399 368.558 362.159 368.558 360.472C368.558 360.004 368.507 359.404 368.405 358.673C368.304 357.941 368.182 357.249 368.04 356.599L367.43 353.763L370.723 353.122L371.303 355.928C371.384 356.294 371.455 356.701 371.516 357.148C371.577 357.575 371.628 358.002 371.669 358.429H374.413V362.088L373.498 363.003H371.608C371.262 365.504 370.327 367.343 368.802 368.523C367.297 369.722 365.132 370.322 362.306 370.322ZM362.001 353.915C361.473 353.915 361.036 353.753 360.69 353.427C360.365 353.102 360.202 352.584 360.202 351.872C360.202 351.161 360.365 350.642 360.69 350.317C361.036 349.992 361.473 349.829 362.001 349.829H362.611C363.14 349.829 363.567 349.992 363.892 350.317C364.238 350.642 364.411 351.161 364.411 351.872C364.411 352.584 364.238 353.102 363.892 353.427C363.567 353.753 363.14 353.915 362.611 353.915H362.001ZM377.986 361.295C377.518 361.925 376.929 362.373 376.217 362.637C375.526 362.881 374.621 363.003 373.503 363.003V359.343L374.418 358.429C375.17 358.429 375.719 358.317 376.065 358.093C376.41 357.87 376.695 357.473 376.919 356.904L377.773 354.8C378.037 354.149 378.332 353.539 378.657 352.97C378.982 352.401 379.369 351.903 379.816 351.476C380.263 351.049 380.761 350.713 381.31 350.469C381.879 350.225 382.53 350.103 383.262 350.103C385.173 350.103 386.606 350.856 387.562 352.36C388.537 353.864 389.025 355.948 389.025 358.612V359.496L386.128 363.796L377.986 361.295ZM379.663 357.056L385.793 358.917V358.612C385.793 357.392 385.498 356.436 384.909 355.745C384.319 355.054 383.516 354.708 382.499 354.708C381.849 354.708 381.28 354.881 380.792 355.227C380.324 355.572 379.968 356.121 379.724 356.873L379.663 357.056Z" fill="#5FB385"/>
<path d="M495.004 35.7834C495.004 43.1029 491.444 49.0365 487.052 49.0365C482.661 49.0365 479.101 43.1029 479.101 35.7834C479.101 28.4639 482.661 22.5303 487.052 22.5303C491.444 22.5303 495.004 28.4639 495.004 35.7834Z" fill="#F0F7F2"/>
</svg>
