<svg width="404" height="412" viewBox="0 0 404 412" fill="none" xmlns="http://www.w3.org/2000/svg">
<path d="M109.974 233.151C40.5493 115.933 95.4038 29.0638 131.509 0.281821C176.052 72.7244 316.937 235.16 381.811 307.322C320.126 331.44 179.398 350.37 109.974 233.151Z" fill="#E05757"/>
<path fill-rule="evenodd" clip-rule="evenodd" d="M142.873 17.7137C116.774 59.8609 100.815 127.672 148.451 209.77C200.6 299.646 298.385 304.901 367.082 290.85C372.327 296.744 377.256 302.256 381.811 307.322C320.126 331.44 179.398 350.37 109.974 233.151C40.5493 115.933 95.4038 29.0639 131.509 0.281829C134.796 5.6267 138.606 11.4615 142.873 17.7137Z" fill="#4C7E24"/>
<path fill-rule="evenodd" clip-rule="evenodd" d="M133.829 3.99994C136.55 8.29962 139.575 12.882 142.872 17.7138C116.774 59.8611 100.815 127.672 148.451 209.77C200.6 299.646 298.385 304.901 367.082 290.85C370.113 294.257 373.04 297.536 375.849 300.675C306.566 318.685 191.782 320.013 131.234 217.782C73.3731 120.087 101.839 43.4736 133.829 3.99994Z" fill="#82AA62"/>
<path d="M141.149 99.4163C141.572 87.5203 144.965 65.1021 155.151 70.5977C167.884 77.4673 149.088 113.944 141.149 99.4163Z" fill="black"/>
<path d="M172.207 130.585C183.323 126.328 205.285 120.693 204.206 132.217C202.856 146.621 161.935 143.568 172.207 130.585Z" fill="black"/>
<path d="M273.627 261.133C284.743 256.875 306.705 251.24 305.625 262.764C304.276 277.169 263.355 274.115 273.627 261.133Z" fill="black"/>
<path d="M197.7 206.931C186.18 203.933 165.035 195.751 172.612 187.002C182.084 176.066 213.605 202.338 197.7 206.931Z" fill="black"/>
<path d="M245.491 188.378C252.418 198.059 263.415 217.887 251.992 219.752C237.714 222.083 230.336 181.718 245.491 188.378Z" fill="black"/>
</svg>
